<!--SVG of logo  -->
<svg width="407" height="136" viewBox="0 0 407 136" fill="none" xmlns="http://www.w3.org/2000/svg">
<path d="M291.772 67.291C290.171 68.8912 287.802 70.2133 287.104 72.1406C284.386 79.6503 281.064 86.6356 274.106 91.1219C265.48 96.6846 255.524 93.0962 252.402 83.4317C248.672 71.8884 253.234 55.5789 262.481 47.7586C267.858 43.2119 273.967 41.6636 280.613 44.4697C285.151 46.3859 287.256 50.4439 287.997 55.0839C288.682 59.3755 290.744 59.6587 293.714 57.3504C295.932 55.626 298.092 53.7375 299.912 51.6086C303.911 46.9286 306.373 46.1786 313.773 48.3564C312.306 51.5068 310.719 54.5334 309.47 57.6938C308.07 61.2383 306.712 64.8446 305.883 68.5467C305.561 69.9873 306.329 72.7222 307.328 73.1441C308.593 73.6785 311.197 72.9841 312.168 71.8861C314.437 69.321 316.385 66.3507 317.898 63.2673C320.459 58.0488 322.764 52.6851 324.836 47.2527C326.656 42.4839 329.696 40.4749 334.773 41.3333C336.513 41.6275 338.344 41.38 341.09 41.38C340.275 43.6074 339.701 45.0435 339.221 46.5104C336.898 53.6112 334.366 60.6563 332.401 67.8559C331.544 70.9977 331.263 75.2487 335.674 76.0154C340.206 76.803 340.907 73.0621 341.863 69.3601C344.6 58.757 347.671 48.2258 351.072 37.8167C352.096 34.6824 351.813 33.2641 348.752 32.2301C342.612 30.1561 336.648 27.4055 330.381 25.8893C314.055 21.9395 301.404 28.7379 295.222 44.1923C289.54 44.4104 285.811 41.7473 283.789 36.0266C280.458 26.6033 284.966 15.6563 294.479 10.641C303.9 5.67406 313.94 5.7057 323.599 9.11448C333.291 12.5344 342.657 16.9737 351.911 21.4893C356.171 23.5679 358.858 23.8675 360.784 18.9319C361.557 16.9509 362.981 15.2139 364.172 13.4078C368.83 6.34561 374.193 4.72792 383.074 7.89241C379.409 14.6472 375.755 21.3805 372.064 28.1835C382.869 32.4751 392.285 28.7814 396.94 19.1421C402.681 19.361 406.146 22.6628 406.882 28.6156C407.831 36.2904 403.016 42.938 395.057 44.6675C386.73 46.477 378.804 44.3267 371.121 41.4894C367.54 40.167 366.208 41.056 364.989 44.4468C360.03 58.2413 356.673 72.2395 359.009 86.9995C359.6 90.7323 360.584 94.5247 362.132 97.9536C364.111 102.336 366.515 102.621 370.459 99.7517C378.357 94.0048 379.395 78.2205 372.418 69.8119C371.59 68.8142 370.7 67.8676 368.921 65.8625C372.004 65.1219 374.219 64.2107 376.468 64.1169C384.861 63.7667 391.397 68.1334 394.435 75.7871C400.182 90.2676 392.769 106.587 378.164 111.609C361.77 117.246 347.956 110.455 343.033 94.3281C342.522 92.6551 342.076 90.9622 341.564 89.1497C325.844 100.98 318.565 99.0996 314.587 82.2061C312.253 83.9032 310.14 85.7588 307.747 87.1226C298.767 92.2399 291.079 87.7987 291.232 77.5385C291.276 74.5794 292.078 71.6317 292.641 68.0642C292.423 67.3968 292.098 67.3439 291.772 67.291ZM268.462 72.4507C268.504 74.9206 268.252 77.4497 268.731 79.8319C268.927 80.8079 270.747 82.201 271.75 82.1391C275.513 81.9069 281.048 71.8649 279.132 68.7167C276.864 64.9874 277.067 61.9934 280.329 59.0007C281.005 58.3803 281.325 56.3185 280.837 55.7391C280.169 54.9454 278.296 54.3267 277.433 54.7188C275.876 55.4267 274.095 56.6829 273.451 58.164C271.553 62.5293 270.166 67.1168 268.462 72.4507Z" fill="#EDE417"/>
<path d="M116.309 37.8606C129.016 28.203 141.424 18.1127 154.534 9.03726C163.522 2.8153 173.906 -1.08699 185.149 0.268887C190.089 0.864712 195.249 2.65793 199.505 5.23512C206.453 9.44232 208.457 17.2728 205.937 25.5139C203.422 33.7392 197.124 38.7983 188.967 39.1462C186.321 26.1565 180.699 21.8041 167.156 24.2945C159.596 25.6849 151.804 28.1722 145.228 32.0497C132.785 39.3859 121.123 48.0512 109.202 56.2579C108.042 57.0563 106.674 58.4272 106.52 59.671C105.441 68.3628 103.579 77.1498 104.05 85.793C104.648 96.7724 112.57 102.386 123.576 101.68C124.2 101.64 124.839 101.828 125.417 101.902C126.965 113.384 116.344 123.388 104.286 121.82C93.7767 120.453 87.3058 113.82 84.9608 104.077C83.3198 97.2598 83.6953 89.937 83.3816 82.8305C83.2758 80.4328 83.8193 78.0065 84.1457 74.8153C78.4658 78.272 73.3927 81.0744 68.6958 84.407C67.4322 85.3036 66.8792 87.785 66.7658 89.5871C66.5825 92.4998 65.5753 93.4947 62.5529 93.6873C53.9628 94.2345 45.4142 95.4552 36.8228 95.9518C31.3839 96.2662 25.7286 96.5692 20.4642 95.4701C4.47436 92.1316 -3.36416 77.4447 1.36624 60.7927C5.86628 44.9515 20.9211 36.6911 36.039 41.768C45.1362 44.8231 50.7031 53.7891 48.4057 62.4136C47.7195 64.9895 45.6824 67.2055 43.532 69.4794C41.9877 63.9356 39.6436 60.3975 33.6844 61.219C26.3478 62.2304 22.6233 70.906 26.4985 78.047C29.8168 84.1617 42.0718 87.5981 47.8196 83.7807C48.9803 83.0099 49.4516 81.0441 50.0067 79.5427C54.9657 66.1291 59.9924 52.7382 64.7251 39.2445C66.2528 34.8889 68.7135 33.1287 73.2531 33.8322C75.6868 34.2094 78.1942 34.112 80.8249 34.2361C76.3489 47.7002 71.9487 60.9366 67.5484 74.173C68.1757 74.4945 68.803 74.816 69.4303 75.1375C76.8628 69.4641 86.1016 66.5966 89.6221 55.6275C93.1946 44.4962 99.473 34.2393 104.477 23.5577C106.036 20.2312 108.42 19.0657 112.038 19.3783C115.495 19.677 118.998 19.4427 123.553 19.4427C120.491 25.4634 117.77 30.8132 114.777 36.8319C114.647 37.8721 114.788 38.2435 114.929 38.6148C115.389 38.3634 115.849 38.112 116.309 37.8606Z" fill="#EDE417"/>
<path d="M288.567 118.173C274.885 117.478 263.125 122.901 250.904 126.709C242.248 129.406 233.219 131.691 224.226 132.33C211.929 133.205 203.473 126.725 201.539 117.08C199.524 107.029 205.381 97.6318 216.555 92.9654C217.001 92.7794 217.396 92.4744 217.822 92.2206C208.585 79.7598 209.189 62.9788 219.248 50.9865C223.295 46.1615 228.291 43.6329 234.703 42.8835C237.697 42.5336 240.974 40.1949 243.067 37.8249C245.049 35.5797 244.572 32.13 241.238 30.7797C238.353 29.611 236.051 30.8813 235.111 34.0674C234.933 34.6708 234.603 35.2295 233.919 36.7543C232.614 34.7612 231.418 33.4785 230.843 31.9604C228.255 25.1301 231.579 18.0572 238.295 15.7639C246.313 13.026 253.37 16.1322 255.791 23.4655C258.238 30.8759 255.269 39.587 248.683 44.2462C247.482 45.0962 246.218 45.8584 244.999 46.651C253.395 61.9247 249.82 76.6875 234.233 91.9455C236.152 93.2093 238.327 94.229 239.961 95.8086C242.748 98.5035 243.706 101.925 241.147 105.223C239.263 107.65 237.073 109.852 234.316 105.444C231.777 101.384 227.454 101.035 223.163 102.219C219.513 103.227 217.83 105.989 217.657 109.689C217.413 114.916 221.044 119.127 226.28 118.216C232.594 117.116 238.862 115.136 244.817 112.718C255.295 108.462 265.409 103.31 275.886 99.051C284.774 95.4383 294.137 93.882 303.794 95.2989C314.345 96.8472 321.758 103.727 322.829 112.931C323.903 122.159 317.923 131.301 308.282 135.081C307.416 135.42 306.423 135.438 305.5 135.603C302.569 122.532 299.825 119.665 288.567 118.173ZM230.264 64.4688C229.641 69.3592 228.579 74.247 228.55 79.1409C228.531 82.3367 231.055 83.8033 233.536 80.959C239.225 74.4388 241.79 66.5765 241.352 57.9938C241.15 54.053 237.801 53.0704 235.093 56.1094C233.161 58.2772 232.045 61.1711 230.264 64.4688Z" fill="#EDE417"/>
<path d="M162.298 116.229C154.243 117.247 147.382 115.116 143.971 108.215C140.988 102.182 139.952 95.1866 138.044 88.5733C136.519 89.498 134.289 91.1942 131.797 92.3017C122.268 96.5366 113.538 91.4587 112.735 81.075C111.82 69.246 115.774 59.0423 124.41 50.9355C132.363 43.47 140.89 43.6796 148.6 51.0414C153.845 44.8428 155.434 44.2871 162.339 46.2542C160.347 52.7011 157.728 59.0349 156.535 65.6267C155.304 72.4277 155.108 79.4815 155.139 86.4217C155.158 90.801 156.656 95.3359 161.342 96.9816C166.076 98.6441 170.122 96.7447 173.212 92.8258C173.469 92.5011 174.066 92.4455 174.487 92.2723C180.447 101.276 174.988 112.275 162.298 116.229ZM144.415 63.5037C145.683 60.3079 147.041 56.838 143.015 54.7958C139.159 52.8398 136.293 55.564 134.876 58.5276C132.62 63.248 131 68.3302 129.686 73.4081C129.3 74.8983 130.424 77.8357 131.645 78.3995C132.967 79.0096 136.06 78.2074 136.899 76.9957C139.669 72.9933 141.771 68.5279 144.415 63.5037Z" fill="#EDE417"/>
<path d="M180.224 51.2667C182.342 50.5752 184.246 49.7662 185.963 48.6656C188.603 46.9727 190.908 44.6135 193.721 43.3571C202.85 39.28 211.553 45.5147 210.262 55.42C209.673 59.9381 207.503 64.2479 206.069 68.6585C203.951 75.177 202.617 81.4898 208.107 87.3617C208.92 88.2312 208.127 91.4671 207.132 92.9906C204.647 96.7951 198.438 98.3794 193.594 96.9943C188.862 95.6414 185.42 91.9402 185.869 86.6597C186.425 80.1146 188.358 73.6973 189.416 67.1792C189.909 64.1426 189.74 60.9987 189.87 57.9034C187.302 59.8901 183.797 61.3603 182.358 63.9698C179.259 69.5885 176.924 75.6912 174.841 81.7887C172.997 87.1872 172.529 87.6155 164.663 86.9393C159.448 86.4909 161.163 82.4381 161.548 80.1543C163.168 70.5406 165.365 61.024 167.364 51.4745C168.378 46.6305 171.205 44.5021 176.235 45.3871C177.798 45.6621 179.45 45.4299 181.651 45.4299C180.924 47.7845 180.425 49.4015 180.224 51.2667Z" fill="#EDE417"/>
<path d="M291.957 67.4523C292.098 67.3438 292.423 67.3967 292.653 67.6622C292.558 67.8748 292.142 67.6137 291.957 67.4523Z" fill="#EDE417"/>
<path d="M115.993 37.6065C115.849 38.112 115.389 38.3634 114.929 38.6148C114.788 38.2435 114.647 37.8721 114.753 37.204C115.227 37.0557 115.452 37.204 115.993 37.6065Z" fill="#EDE417"/>
</svg>
